<svg width="127" height="93" viewBox="0 0 127 93" fill="none" xmlns="http://www.w3.org/2000/svg">
<path d="M9.41093 9.24415C10.784 3.8084 15.6741 0 21.2805 0C29.2575 0 35.1038 7.50672 33.1501 15.2407L27.1099 39.1527C25.8918 43.9752 25.8918 49.0248 27.1099 53.8473L33.1501 77.7593C35.1038 85.4933 29.2575 93 21.2805 93C15.6741 93 10.784 89.1916 9.41094 83.7559L1.85595 53.8473C0.637783 49.0248 0.637781 43.9752 1.85595 39.1527L9.41093 9.24415Z" fill="#FFB99B"/>
<path d="M121.688 26.1799C120.89 23.1285 118.133 21 114.979 21C110.438 21 107.122 25.2935 108.271 29.6874L111.117 40.573C112.133 44.459 112.133 48.541 111.117 52.427L108.271 63.3126C107.122 67.7065 110.438 72 114.979 72C118.133 72 120.89 69.8715 121.688 66.8201L125.016 54.0881C126.317 49.113 126.317 43.887 125.016 38.9119L121.688 26.1799Z" fill="#FFCCB6"/>
<path d="M44.4 64.3C43.2333 64.3 42.2833 63.95 41.55 63.25C40.85 62.5167 40.5 61.5667 40.5 60.4V32.4C40.5 31.2333 40.8167 30.3333 41.45 29.7C42.0833 29.0667 42.9833 28.75 44.15 28.75H61.35C62.6167 28.75 63.55 29 64.15 29.5C64.75 30 65.05 30.7833 65.05 31.85C65.05 32.8833 64.75 33.65 64.15 34.15C63.55 34.65 62.6167 34.9 61.35 34.9H48.2V43H60.35C61.6167 43 62.55 43.25 63.15 43.75C63.75 44.25 64.05 45.0333 64.05 46.1C64.05 47.1333 63.75 47.9 63.15 48.4C62.55 48.9 61.6167 49.15 60.35 49.15H48.2V60.4C48.2 61.6 47.85 62.55 47.15 63.25C46.4833 63.95 45.5667 64.3 44.4 64.3ZM72.7633 64C71.5966 64 70.6966 63.6833 70.0633 63.05C69.4299 62.4167 69.1133 61.5167 69.1133 60.35V32.4C69.1133 31.2333 69.4299 30.3333 70.0633 29.7C70.6966 29.0667 71.5966 28.75 72.7633 28.75H90.4633C92.9299 28.75 94.1633 29.75 94.1633 31.75C94.1633 33.7833 92.9299 34.8 90.4633 34.8H76.7133V43.05H89.4633C91.9299 43.05 93.1633 44.0667 93.1633 46.1C93.1633 48.1 91.9299 49.1 89.4633 49.1H76.7133V57.95H90.4633C92.9299 57.95 94.1633 58.9667 94.1633 61C94.1633 63 92.9299 64 90.4633 64H72.7633Z" fill="#FFB99B"/>
</svg>
